<?xml version="1.0" standalone="no"?><!DOCTYPE svg PUBLIC "-//W3C//DTD SVG 1.1//EN" "http://www.w3.org/Graphics/SVG/1.1/DTD/svg11.dtd"><svg t="1498547230847" class="icon" style="" viewBox="0 0 1024 1024" version="1.1" xmlns="http://www.w3.org/2000/svg" p-id="5917" xmlns:xlink="http://www.w3.org/1999/xlink" width="32" height="32"><defs><style type="text/css"></style></defs><path d="M549.803 447.951c-21.544-21.034-56.478-21.034-78.026 0l-393.466 383.229c-21.546 21.036-21.546 55.142 0 76.179s56.48 21.037 78.026 0l354.454-345.23 354.454 345.23c21.549 21.037 56.482 21.037 78.028 0 21.547-21.036 21.547-55.142 0-76.179l-393.467-383.228zM156.337 575.051l354.454-345.23 354.454 345.23c21.549 21.037 56.482 21.037 78.028 0 21.547-21.036 21.547-55.142 0-76.179l-393.468-383.228c-21.544-21.034-56.478-21.034-78.026 0l-393.466 383.229c-21.546 21.036-21.546 55.142 0 76.179 21.547 21.036 56.482 21.037 78.026 0z" p-id="5918" fill="#8a8a8a"></path></svg>