<?xml version="1.0" standalone="no"?><!DOCTYPE svg PUBLIC "-//W3C//DTD SVG 1.1//EN" "http://www.w3.org/Graphics/SVG/1.1/DTD/svg11.dtd"><svg t="1498546942403" class="icon" style="" viewBox="0 0 1024 1024" version="1.1" xmlns="http://www.w3.org/2000/svg" p-id="4122" xmlns:xlink="http://www.w3.org/1999/xlink" width="32" height="32"><defs><style type="text/css"></style></defs><path d="M511.546164 64.934918c-246.836805 0-446.953541 200.116737-446.953541 446.953541 0 246.836805 200.116737 446.954565 446.953541 446.954565 246.837828 0 446.953541-200.11776 446.953541-446.954565C958.500729 265.050632 758.383992 64.934918 511.546164 64.934918zM451.802478 711.584618l-0.524956 0.525979 0 0-0.069585 0.068562-37.921681-37.956474 0.055259-0.055259L233.667366 494.463602l37.921681-37.920658 179.688475 179.688475 317.967842-317.964772 37.954427 37.920658L451.802478 711.584618z" p-id="4123" fill="#19be6b"></path><path d="M511.546164 959.354678c-60.404742 0-119.004371-11.831466-174.170808-35.164894-53.283554-22.538319-101.136422-54.803163-142.232398-95.898117-41.094954-41.094954-73.358775-88.948845-95.897094-142.232398-23.334451-55.165414-35.165918-113.766067-35.165918-174.170808 0-60.404742 11.831466-119.004371 35.165918-174.170808 22.537296-53.283554 54.80214-101.137445 95.897094-142.232398 41.094954-41.094954 88.948845-73.358775 142.232398-95.897094 55.166437-23.334451 113.765043-35.165918 174.170808-35.165918s119.004371 11.831466 174.170808 35.165918c53.28253 22.537296 101.137445 54.80214 142.231375 95.897094 41.094954 41.094954 73.359798 88.948845 95.898117 142.232398 23.334451 55.166437 35.164894 113.765043 35.164894 174.170808 0 60.404742-11.831466 119.004371-35.164894 174.170808-22.537296 53.283554-54.803163 101.137445-95.898117 142.232398-41.09393 41.094954-88.948845 73.358775-142.231375 95.898117C630.550535 947.524235 571.951929 959.354678 511.546164 959.354678zM511.546164 65.446571c-246.168586 0-446.441888 200.273303-446.441888 446.441888 0 246.169609 200.273303 446.442912 446.441888 446.442912 246.169609 0 446.441888-200.273303 446.441888-446.442912C957.989075 265.719874 757.715773 65.446571 511.546164 65.446571zM451.277522 712.834074l-0.430812-0.292666-38.283931-38.318724 0.055259-0.054235L232.943888 494.463602l38.645159-38.644135 179.688475 179.688475 317.967842-317.964772 38.677904 38.644135L451.277522 712.834074zM414.010757 674.223708l37.19718 37.231973 0.232291-0.233314 355.036086-355.035062-37.230949-37.19718L451.277522 636.954897 271.589047 457.267445l-37.198204 37.19718 179.675172 179.703825L414.010757 674.223708z" p-id="4124" fill="#19be6b"></path></svg>